# xmcd
#
# Track frame offsets: 
#        150
#        22767
#        33944
#        45372
#        59320
#        79292
#        96245
#        115376
#
# Disc length: 1692 seconds
#
# Revision: 0
# Processed by: cddbd v1.5.2PL0 Copyright (c) Steve Scherf et al.
# Submitted via: ExactAudioCopy v0.99pb1
#
DISCID=59069a08
DTITLE=Czas Na Grass - Czas Na Grass
DYEAR=2007
DGENRE=Bluegrass
TTITLE0=Wayfarin' Stranger
TTITLE1=Carry Me Across The Mountain
TTITLE2=The Hymn Of Ordinary Motion
TTITLE3=Saw You Running
TTITLE4=Pograssie
TTITLE5=Hold To A Dream
TTITLE6=Baby Don't You Break My Heart Slow
TTITLE7=Rain Please Go Away
EXTD=
EXTT0=
EXTT1=
EXTT2=
EXTT3=
EXTT4=
EXTT5=
EXTT6=
EXTT7=
PLAYORDER=
